<?xml version="1.0" encoding="UTF-8"?><svg id="Layer_2" xmlns="http://www.w3.org/2000/svg" viewBox="0 0 97.13 18.1"><g id="object"><g><path d="M8.26,13.44L2.58,4.52V13.44H0V.16H2.94l5.28,8.54V.16h2.6V13.44h-2.56Z"/><path d="M14.49,9.2c.08,1.48,.92,2.44,2.2,2.44,.84,0,1.58-.42,1.76-1.1h2.68c-.6,2.02-2.22,3.16-4.32,3.16-3.28,0-4.92-1.8-4.92-5.36,0-3.04,1.74-5,4.76-5s4.62,1.96,4.62,5.86h-6.78Zm4.1-1.64c-.04-1.46-1-2.16-2.02-2.16s-1.9,.8-2,2.16h4.02Z"/><path d="M30.99,9.88c-.28,2.28-2.14,3.82-4.52,3.82-2.68,0-4.52-1.78-4.52-5.3s1.84-5.06,4.6-5.06c2.56,0,4.3,1.46,4.46,3.78h-2.62c-.14-1.02-.88-1.62-1.86-1.62-1.1,0-2,.7-2,2.84s.9,3.18,1.92,3.18,1.82-.58,1.92-1.64h2.62Z"/><path d="M37.96,13.44c-.08-.24-.14-.58-.16-.88-.62,.68-1.66,1.14-2.98,1.14-2.24,0-3.28-1.1-3.28-2.7,0-2.84,1.9-3.16,4.52-3.52,1.3-.18,1.66-.44,1.66-1.12,0-.64-.64-1.02-1.66-1.02-1.18,0-1.66,.58-1.78,1.46h-2.42c.04-2.04,1.16-3.46,4.32-3.46s4.2,1.4,4.2,3.88v6.22h-2.42Zm-.18-4.82c-.26,.26-.72,.4-1.68,.58-1.48,.28-1.96,.7-1.96,1.54,0,.74,.44,1.1,1.26,1.1,1.34,0,2.34-.98,2.36-2.14l.02-1.08Z"/><path d="M42.18,3.6V.98h2.48V3.6h2.04v1.8h-2.04v4.74c0,.82,.46,1.26,1.22,1.26h.66v2.04h-1.34c-2.04,0-3.02-1.08-3.02-2.98V5.4h-1.16v-1.8h1.16Z"/><path d="M47.59,2.42V0h2.6V2.42h-2.6Zm0,11.02V3.6h2.6V13.44h-2.6Z"/><path d="M56.12,13.44V.16h9.76V2.48h-7.06v2.84h6.5v2.34h-6.5v3.42h7.38v2.36h-10.08Z"/><path d="M67.07,13.44V3.6h2.44v1.18c.86-1.32,1.86-1.44,2.92-1.44h.34v2.66c-.24-.04-.48-.06-.72-.06-1.6,0-2.38,.8-2.38,2.38v5.12h-2.6Z"/><path d="M80.22,12.12c-.36,.88-1.42,1.4-2.7,1.4-3.24,0-4.36-2.48-4.36-5.06,0-3.06,1.92-5.12,4.3-5.12,1.24,0,2.14,.48,2.76,1.48v-1.22h2.6V13.54c0,2.96-2.16,4.56-4.9,4.56s-4.76-1.58-4.76-4.12h2.42c0,1.18,.86,1.88,2.16,1.88,1.38,0,2.48-.82,2.48-2.12v-1.62Zm.08-3.36c0-2.14-.74-3.16-2.22-3.16s-2.22,.98-2.22,3c0,1.76,.94,2.88,2.22,2.88s2.22-1.06,2.22-2.72Z"/><path d="M84.23,2.42V0h2.6V2.42h-2.6Zm0,11.02V3.6h2.6V13.44h-2.6Z"/><path d="M94.51,13.44V7.48c0-1.52-.44-1.94-1.68-1.94-1.36,0-2.02,.76-2.02,2.26v5.64h-2.6V3.6h2.48v1.44c.6-1.1,1.6-1.7,3.18-1.7,1.88,0,3.26,1.14,3.26,3.28v6.82h-2.62Z"/></g></g></svg>